HIERARCHY
ROOT Hips
{
	OFFSET 0.000000 8.830580 0.000000
	CHANNELS 6 Xposition Yposition Zposition Zrotation Yrotation Xrotation 
	JOINT Spine
	{
		OFFSET 0.000000 0.010000 0.000000
		CHANNELS 3 Zrotation Yrotation Xrotation
		JOINT Spine1
		{
			OFFSET 0.000000 2.459130 0.000000
			CHANNELS 3 Zrotation Yrotation Xrotation
			JOINT Neck
			{
				OFFSET 0.000000 2.484630 0.000000
				CHANNELS 3 Zrotation Yrotation Xrotation
				JOINT Head_virtual
				{
					OFFSET 0.000000 0.000000 0.000000
					CHANNELS 3 Zrotation Yrotation Xrotation
					JOINT Head
					{
						OFFSET 0.000000 0.927525 0.000000
						CHANNELS 3 Zrotation Yrotation Xrotation
						End Site
						{
							OFFSET 0.000000 0.000000 0.000000
						}
					}
				}
				JOINT LeftUpArm_virtual
				{
					OFFSET 0.000000 0.000000 0.000000
					CHANNELS 3 Zrotation Yrotation Xrotation
					JOINT LeftUpArm
					{
						OFFSET 1.248820 0.000000 0.000000
						CHANNELS 3 Zrotation Yrotation Xrotation
						JOINT LeftForeArm
						{
							OFFSET 2.597580 0.000000 0.000000
							CHANNELS 3 Zrotation Yrotation Xrotation
							JOINT LeftHand
							{
								OFFSET 2.455420 0.000000 0.000000
								CHANNELS 3 Zrotation Yrotation Xrotation
								End Site
								{
									OFFSET 0.000000 0.000000 0.000000
								}
							}
						}
					}
				}
				JOINT RightUpArm_virtual
				{
					OFFSET -0.000000 -0.000000 -0.000000
					CHANNELS 3 Zrotation Yrotation Xrotation
					JOINT RightUpArm
					{
						OFFSET -1.248820 -0.000000 -0.000000
						CHANNELS 3 Zrotation Yrotation Xrotation
						JOINT RightForeArm
						{
							OFFSET -2.597580 -0.000000 -0.000000
							CHANNELS 3 Zrotation Yrotation Xrotation
							JOINT RightHand
							{
								OFFSET -2.455420 -0.000000 -0.000000
								CHANNELS 3 Zrotation Yrotation Xrotation
								End Site
								{
									OFFSET 0.000000 0.000000 0.000000
								}
							}
						}
					}
				}
			}
		}
	}
	JOINT LeftUpLeg
	{
		OFFSET 1.271939 0.000000 0.000000
		CHANNELS 3 Zrotation Yrotation Xrotation
		JOINT LeftLowLeg
		{
			OFFSET 0.000000 -4.342910 0.000000
			CHANNELS 3 Zrotation Yrotation Xrotation
			JOINT LeftFoot
			{
				OFFSET 0.000000 -4.487670 0.000000
				CHANNELS 3 Zrotation Yrotation Xrotation
				JOINT LeftToeBase
				{
					OFFSET 0.000000 0.000000 1.515070
					CHANNELS 3 Zrotation Yrotation Xrotation
					End Site
					{
						OFFSET 0.000000 0.000000 0.000000
					}
				}
			}
		}
	}
	JOINT RightUpLeg
	{
		OFFSET -1.271939 0.000000 0.000000
		CHANNELS 3 Zrotation Yrotation Xrotation
		JOINT RightLowLeg
		{
			OFFSET 0.000000 -4.342910 0.000000
			CHANNELS 3 Zrotation Yrotation Xrotation
			JOINT RightFoot
			{
				OFFSET 0.000000 -4.487670 0.000000
				CHANNELS 3 Zrotation Yrotation Xrotation
				JOINT RightToeBase
				{
					OFFSET 0.000000 0.000000 1.515070
					CHANNELS 3 Zrotation Yrotation Xrotation
					End Site
					{
						OFFSET 0.000000 0.000000 0.000000
					}
				}
			}
		}
	}
}
MOTION
Frames: 5
Frame Time: 0.041667
-16.988689 8.701476 38.788567 172.304720 3.892260 -176.714414 3.231853 3.279854 -18.462831 -17.441581 6.527821 17.206598 0.000000 0.000000 0.000000 13.330263 12.662091 -3.952103 -12.238970 -1.988025 -70.380621 -27.210699 -5.943550 10.871700 -33.313099 -20.386499 4.972992 0.000000 -26.501499 0.000000 11.581100 7.232240 23.490000 35.962700 0.723025 -176.511993 -43.125000 -12.616100 -164.084000 0.000000 22.357000 0.000000 -2.645630 -3.349710 3.212910 -13.512073 -13.261334 -2.349855 0.000000 0.000000 5.669370 -3.751342 20.539210 -4.606924 0.000000 0.000000 -10.423430 -11.031335 21.927313 -25.291634 0.000000 0.000000 44.503101 12.478638 -16.506025 -11.687409 0.000000 0.000000 -19.081670 
-16.991384 8.701991 38.795836 172.310174 3.773584 -176.739301 3.277657 3.311644 -18.385097 -17.550568 6.486960 17.179675 0.000000 0.000000 0.000000 13.435956 12.648048 -3.946765 -12.175125 -1.936672 -70.380302 -27.247299 -5.904420 10.964600 -33.150299 -20.273199 5.326996 0.000000 -27.014900 0.000000 11.224700 6.911160 24.605400 35.946098 0.641676 -176.488007 -43.119499 -12.542200 -163.468002 0.000000 23.194201 0.000000 -2.912520 -3.182710 3.096080 -13.511868 -13.423045 -2.389203 0.000000 0.000000 5.719900 -3.760773 20.589166 -4.581291 0.000000 0.000000 -10.407730 -11.030188 21.873357 -25.262457 0.000000 0.000000 44.478500 12.493459 -16.559424 -11.660591 0.000000 0.000000 -19.064230 
-16.994126 8.702386 38.803423 172.307099 3.673699 -176.770931 3.323456 3.389720 -18.261976 -17.697770 6.450963 17.100274 0.000000 0.000000 0.000000 13.606976 12.611134 -3.912932 -12.059977 -1.874864 -70.350525 -27.205500 -5.838800 10.966300 -33.112801 -20.035801 5.678009 0.000000 -27.353100 0.000000 10.901600 6.614480 25.638700 35.925301 0.556742 -176.498993 -43.145199 -12.341600 -162.923996 0.000000 23.897600 0.000000 -3.116710 -2.934670 2.709550 -13.521320 -13.617665 -2.423353 0.000000 0.000000 5.765830 -3.819721 20.669888 -4.569400 0.000000 0.000000 -10.451800 -11.044643 21.854008 -25.232431 0.000000 0.000000 44.444000 12.532245 -16.602254 -11.645243 0.000000 0.000000 -19.060750 
-16.996801 8.702588 38.811491 172.288281 3.618252 -176.786122 3.346950 3.498385 -18.086867 -17.863819 6.396553 16.907690 0.000000 0.000000 0.000000 13.765052 12.621781 -3.806045 -11.879927 -1.824657 -70.336742 -27.187401 -5.722690 10.927700 -33.091702 -19.645599 5.895996 0.000000 -27.571800 0.000000 10.558100 6.513170 26.396099 35.856899 0.464680 -176.494003 -43.253300 -12.087800 -162.455002 0.000000 24.419001 0.000000 -3.252980 -2.734410 2.416840 -13.539000 -13.725343 -2.487691 0.000000 0.000000 5.822790 -3.850144 20.704628 -4.557187 0.000000 0.000000 -10.475650 -11.093443 21.880508 -25.258561 0.000000 0.000000 44.458500 12.591012 -16.616492 -11.622806 0.000000 0.000000 -19.066820 
-16.998965 8.702686 38.819666 172.274475 3.585238 -176.792162 3.387126 3.644583 -17.858731 -18.092172 6.302417 16.618020 0.000000 0.000000 0.000000 13.977820 12.622089 -3.651128 -11.714631 -1.763296 -70.325343 -27.150299 -5.573370 10.887200 -33.102501 -19.126600 5.954010 0.000000 -27.584801 0.000000 10.242200 6.459090 26.263399 35.831600 0.362498 -176.475006 -43.331600 -11.751100 -161.951004 0.000000 24.811899 0.000000 -3.317320 -2.589790 2.095510 -13.545187 -13.898432 -2.552569 0.000000 0.000000 5.858470 -3.910696 20.802271 -4.554359 0.000000 0.000000 -10.532930 -11.137159 21.914221 -25.297572 0.000000 0.000000 44.451698 12.620517 -16.667459 -11.607954 0.000000 0.000000 -19.026470 
